<svg xmlns="http://www.w3.org/2000/svg" viewBox="0 0 1804.41 2349.84"><defs><style>.cls-1{fill:#888889;}.cls-1,.cls-3{fill-rule:evenodd;}.cls-2{fill:none;stroke:#fff;stroke-linecap:round;stroke-linejoin:round;stroke-width:27.47px;}.cls-3{fill:#008fe9;}.cls-4{fill:#595757;}</style></defs><g id="Layer_2" data-name="Layer 2"><g id="Layer_1-2" data-name="Layer 1"><path class="cls-1" d="M902.21,0c498.18,0,902.2,404,902.2,902.21s-404,902.2-902.2,902.2S0,1400.39,0,902.21,404,0,902.21,0Zm0,198.53c388.25,0,703.21,315,703.21,703.68s-315,703.21-703.21,703.21c-388.72,0-703.68-314.5-703.68-703.21s315-703.68,703.68-703.68Z"/><path class="cls-1" d="M902.21,349.75c305.22,0,552.45,247.24,552.45,552.46s-247.23,552.45-552.45,552.45S349.75,1207.42,349.75,902.21,597,349.75,902.21,349.75Zm0,121.53c238,0,430.46,193,430.46,430.93s-192.5,430.92-430.46,430.92-430.93-193-430.93-430.92,193-430.93,430.93-430.93Z"/><path class="cls-1" d="M902.21,581.21c177.19,0,321,143.8,321,321s-143.8,321-321,321-321-143.8-321-321,143.79-321,321-321Zm0,70.51c138.23,0,250.48,112.26,250.48,250.49s-112.25,250.48-250.48,250.48S651.72,1040.44,651.72,902.21,764,651.72,902.21,651.72Z"/><path class="cls-2" d="M908.24,840.05a1.6,1.6,0,0,0-.47-.93L623,554.31V375.73a49.43,49.43,0,0,0-14.38-35.26L309.39,38a49.5,49.5,0,0,0-84.88,35.25V222.65H71.43A50.15,50.15,0,0,0,36.18,308L338.62,610.44a49.4,49.4,0,0,0,35.25,14.38H552.46L837.27,909.63a1.61,1.61,0,0,0,.92.46c19.49,18.56,48.71,19,68.65,0,20.41-19.94,19.95-50.56,1.4-70Z"/><path class="cls-3" d="M908.24,840.05a1.6,1.6,0,0,0-.47-.93L623,554.31V375.73a49.43,49.43,0,0,0-14.38-35.26L309.39,38a49.5,49.5,0,0,0-84.88,35.25V222.65H71.43A50.15,50.15,0,0,0,36.18,308L338.62,610.44a49.4,49.4,0,0,0,35.25,14.38H552.46L837.27,909.63a1.61,1.61,0,0,0,.92.46c19.49,18.56,48.71,19,68.65,0,20.41-19.94,19.95-50.56,1.4-70Z"/><path class="cls-4" d="M377.58,2342.42H306.15l-16.7-121.53c-.93-8.35-2.32-18.09-3.25-28.29-.93-10.67-1.85-22.27-2.32-34.33-1.85,11.6-5.56,26.44-10.67,44.53-.92,3.71-1.85,6.49-2.32,7.89l-38,131.73H181.37l-38-131.73c-.46-1.4-.93-4.18-2.32-7.89-5.1-18.09-8.81-32.47-10.2-44.53-.93,10.67-1.86,21.34-2.78,31.54-.93,10.67-2.32,20.88-3.72,31.08l-16.69,121.53h-71l43.14-280.63h76.08l42.21,144.72a24.63,24.63,0,0,1,1.39,5.1c4.17,13,6.49,23.66,7.42,32.94.93-5.1,1.86-10.21,3.25-16.7,1.39-6,3.25-13,5.56-21.8l42.68-144.26h76.07Zm43.14,0V2061.79h77.46v280.63ZM571.94,2252c11.59,12.52,22.73,22.26,33.86,28.76a64.76,64.76,0,0,0,32.93,9.28c10.21,0,18.56-2.32,25.52-7.89a26.38,26.38,0,0,0,9.74-20.87c0-9.28-2.79-16.7-8.35-21.8-6-5.11-18.56-10.21-39-15.31-27.36-7.42-46.85-17.16-58-29.22-11.6-12.07-17.16-28.3-17.16-48.71,0-26.9,8.81-48.71,26.9-65.87,18.09-16.7,41.29-25.51,70.05-25.51a153.54,153.54,0,0,1,44.06,6.49,140.46,140.46,0,0,1,39.43,19l-24.12,54.74c-8.81-7.42-17.63-13-26.9-16.7a70,70,0,0,0-26.91-5.57c-9.28,0-16.7,2.32-22.73,6.5a20.68,20.68,0,0,0-8.35,17.16c0,7,2.32,12.52,7.42,16.7s14.85,8.35,29.23,12.06l3.24.93c31.55,8.35,52,17.62,61.7,27.83A63,63,0,0,1,739.86,2219a96.61,96.61,0,0,1,5.1,32c0,29.69-9.74,53.81-29.23,71.9s-45.92,26.9-78.39,26.9c-19.48,0-37.11-3.24-53.34-9.74-16.24-7-31.54-17.16-46.39-31.54Zm228.22,0c11.59,12.52,22.73,22.26,33.86,28.76S855.82,2290,867,2290c10.21,0,18.56-2.32,25.51-7.89a26.36,26.36,0,0,0,9.75-20.87c0-9.28-2.79-16.7-8.82-21.8-5.56-5.11-18.09-10.21-38.5-15.31q-41.05-11.13-58.44-29.22-16.71-18.11-16.7-48.71c0-26.9,8.81-48.71,26.9-65.87,17.63-16.7,41.28-25.51,70-25.51a148.14,148.14,0,0,1,43.61,6.49,137.26,137.26,0,0,1,39.89,19l-24.12,54.74c-8.82-7.42-17.63-13-26.91-16.7a71.65,71.65,0,0,0-26.9-5.57c-9.28,0-16.7,2.32-22.73,6.5a20.66,20.66,0,0,0-8.35,17.16c0,7,2.32,12.52,7.42,16.7s14.85,8.35,29.23,12.06l3.24.93c31.55,8.35,52,17.62,61.7,27.83,7,7,11.59,15.3,15.3,25.05a96.35,96.35,0,0,1,5.11,32c0,29.69-9.74,53.81-29.23,71.9s-45.92,26.9-78.39,26.9c-19.48,0-37.11-3.24-53.34-9.74-16.24-7-31.55-17.16-46.39-31.54Zm218,90.45V2061.79h77v280.63Zm427.21-139.62a144.9,144.9,0,0,1-11.13,56.59c-7.42,17.63-18.55,33.4-32.47,47.31a149.93,149.93,0,0,1-49.17,32,154.17,154.17,0,0,1-115,0,146.18,146.18,0,0,1-48.25-32c-14.37-13.91-25.51-29.68-32.93-47.31a150.6,150.6,0,0,1,0-113.64c7.42-17.63,18.56-33.4,32.93-47.32,13.92-13.91,30.16-24.12,48.25-32a152.74,152.74,0,0,1,57.51-11.14,155.19,155.19,0,0,1,58,11.14c18.09,7.88,34.32,18.09,48.7,32a147.18,147.18,0,0,1,32,47.32,139.56,139.56,0,0,1,11.59,57.05Zm-150.29,82.1c21.34,0,39-7.42,52.88-23.19s20.88-35.25,20.88-58.91-7.42-43.14-21.34-58.91-31.54-23.66-52.42-23.66c-21.33,0-38.5,7.89-52.41,23.66-13.92,15.31-20.88,35.25-20.88,58.91s7,43.6,20.41,58.91c13.92,15.77,31.55,23.19,52.88,23.19Zm198.07,57.52V2061.79h73.76l106.22,144.26c1.85,2.78,5.57,8.81,10.2,17.62s9.75,19.49,15.31,32c-1.39-11.6-2.78-22.26-3.25-31.08-.92-9.28-1.39-17.16-1.39-24.12V2061.79h73.76v280.63H1694L1588.25,2197.7c-2.32-3.25-5.56-9.28-10.2-18.09a278.63,278.63,0,0,1-15.31-31.08c1.39,11.6,2.32,21.8,3.25,31.08.46,9.27.93,17.16.93,24.12v138.69Z"/></g></g></svg>