<svg xmlns="http://www.w3.org/2000/svg" viewBox="0 0 2102.88 2181.77"><defs><style>.cls-1{fill:#888889;}.cls-1,.cls-2{fill-rule:evenodd;}.cls-2{fill:#008fe9;}.cls-3{fill:#595757;}</style></defs><g id="Layer_2" data-name="Layer 2"><g id="Layer_1-2" data-name="Layer 1"><path class="cls-1" d="M2089.45,1012.65c-18.75-25.57-466.26-629.07-1037.8-629.07-572,0-1019.47,603.5-1038.22,629.07a69,69,0,0,0,0,81.84c18.75,25.57,466.26,629.07,1038.22,629.07,571.54,0,1019-603.5,1037.8-629.07a69.08,69.08,0,0,0,0-81.84ZM1051.65,1585c-421.08,0-785.91-400.63-893.74-531.47C265.74,922.73,629.71,522.1,1051.65,522.1c420.66,0,785.49,400.63,893.32,531.47C1837.14,1184.84,1473.59,1585,1051.65,1585Z"/><path class="cls-1" d="M1051.65,637.6c-229.29,0-416,186.67-416,416s186.68,416,416,416,415.55-186.67,415.55-416-186.25-416-415.55-416Zm0,693.43c-153,0-277.46-124.45-277.46-277.46s124.46-277,277.46-277c152.58,0,277,124,277,277S1204.23,1331,1051.65,1331Z"/><path class="cls-2" d="M1051.65,1171.2c64.36,0,117.21-52.85,117.21-117.63S1116,936.36,1051.65,936.36c-64.78,0-117.63,52.43-117.63,117.21s52.85,117.63,117.63,117.63Z"/><path class="cls-3" d="M499.3,2175,391,1917.1h75l51.57,144.06c.43,1.7,1.28,5.54,3,11.08,1.28,6,3,13.64,5.55,23.44,1.7-7.67,3.4-14.92,5.11-21.31s3-10.66,3.84-13.21l51.14-144.06h75L553,2175Zm184.54,0V1917.1H755V2175Zm139.37-83.11c10.23,11.51,20.46,20.46,30.68,26.43a59.53,59.53,0,0,0,30.26,8.52c9.38,0,17.48-2.13,23.45-7.25a24.23,24.23,0,0,0,8.95-19.17c0-8.53-2.56-15.35-7.68-20-5.54-4.68-17-9.37-35.8-14.06-25.14-6.82-43-15.77-53.27-26.85-10.66-11.08-15.77-26-15.77-44.75,0-24.72,8.1-44.75,24.72-60.52,16.62-15.35,37.93-23.44,64.36-23.44a141.09,141.09,0,0,1,40.48,6,123.59,123.59,0,0,1,36.23,17.48l-22.16,50.29a90.92,90.92,0,0,0-24.72-15.34,64.22,64.22,0,0,0-24.72-5.12c-8.52,0-15.34,2.13-20.46,6a18.32,18.32,0,0,0-8.1,15.77c0,6.39,2.14,11.51,6.82,15.34s13.64,7.67,26.85,11.08l3.41.85q42.84,11.52,56.26,25.58a57.91,57.91,0,0,1,14.07,23c3.41,8.53,4.68,18.33,4.68,29.41,0,27.28-9,49.44-26.85,66.06s-42.19,24.72-72,24.72c-17.9,0-34.1-3-49-8.95-14.91-6.39-29-15.77-42.62-29ZM1023.1,2175V1917.1h71.17V2175Zm392.53-128.29a133.09,133.09,0,0,1-10.23,52,129.94,129.94,0,0,1-29.83,43.47,137.91,137.91,0,0,1-45.18,29.41,141.62,141.62,0,0,1-105.7,0,134.35,134.35,0,0,1-44.33-29.41,131.06,131.06,0,0,1-30.25-43.47,138.34,138.34,0,0,1,0-104.42,131.26,131.26,0,0,1,30.25-43.47c12.79-12.79,27.71-22.16,44.33-29.41a142.72,142.72,0,0,1,106.12,0c17,7.25,32,16.62,44.76,29.41a144.11,144.11,0,0,1,29.83,43.47,135.2,135.2,0,0,1,10.23,52.42Zm-138.09,75.44c19.6,0,35.8-6.82,48.59-21.31s19.18-32.39,19.18-54.13-6.4-39.63-19.61-54.12c-12.79-14.49-29-21.74-48.16-21.74s-35.38,7.25-48.16,21.74c-12.79,14.06-19.18,32.39-19.18,54.12s6.39,40.07,18.75,54.13c12.79,14.49,29,21.31,48.59,21.31Zm182,52.85V1917.1h67.76l97.6,132.55c1.71,2.56,5.12,8.1,9.38,16.19s9,17.9,14.06,29.41c-1.27-10.65-2.55-20.46-3-28.55a212.71,212.71,0,0,1-.85-22.17V1917.1h67.34V2175H1644.5l-97.6-133c-2.13-3-5.12-8.53-9.38-16.63-4.69-8.09-9-17.47-14.06-28.55,1.28,10.65,2.13,20,3,28.55a212.71,212.71,0,0,1,.85,22.17V2175Z"/><path class="cls-2" d="M1024.38,0h0a56.2,56.2,0,0,1,56.25,56.26v222.9a56.47,56.47,0,0,1-56.25,56.26h0a56.47,56.47,0,0,1-56.26-56.26V56.26A56.2,56.2,0,0,1,1024.38,0Z"/><path class="cls-2" d="M1512.38,115.5h0a56.39,56.39,0,0,1,20.88,76.72L1421.59,385.29a55.87,55.87,0,0,1-76.71,20.45h0A56.38,56.38,0,0,1,1324,329L1435.66,136a55.88,55.88,0,0,1,76.72-20.46Z"/><path class="cls-2" d="M536.37,115.5h0a55.88,55.88,0,0,0-20.45,76.72L627.16,385.29c15.34,26.85,50.29,36.22,77.14,20.45h0c26.85-15.34,35.8-49.86,20.46-76.71L613.52,136c-15.77-26.85-50.29-36.23-77.15-20.46Z"/></g></g></svg>